<svg preserveAspectRatio="none" width="100%" height="100%" overflow="visible" style="display: block;" viewBox="0 0 193.999 61.7685" fill="none" xmlns="http://www.w3.org/2000/svg">
<g id="Group 321">
<path id="Path 291" d="M0 42.8003V40.8743H5.706V1.93133H0V0.00632668H21.4V1.93133H15.691V40.8743H19.471C19.9644 40.9262 20.425 41.1457 20.7761 41.4962C21.1271 41.8467 21.3473 42.307 21.4 42.8003H0Z" fill="var(--fill-0, #8D7431)"/>
<path id="Path 292" d="M45.291 0.00632668C50.1721 -0.103143 54.9796 1.21026 59.127 3.78633C65.1183 7.68566 68.114 13.6057 68.114 21.5463C68.211 24.3897 67.7015 27.221 66.6193 29.8522C65.5372 32.4833 63.9073 34.8539 61.838 36.8063C57.5587 40.8003 52.1143 42.7973 45.505 42.7973H24.25V40.8753H29.959V1.93233H24.25V0.00632668H45.291ZM39.941 1.93233V40.8753H45.359C47.3254 40.9422 49.273 40.4738 50.994 39.5203C54.94 37.191 56.9133 31.081 56.914 21.1903C57.0332 17.171 56.5533 13.1563 55.49 9.27833C53.8233 4.38166 50.495 1.93266 45.505 1.93133L39.941 1.93233Z" fill="var(--fill-0, #8D7431)"/>
<path id="Path 293" d="M105.916 13.7003L104.346 8.77933C104.204 8.35133 104.036 7.92333 103.846 7.49633C103.302 5.81169 102.217 4.35357 100.76 3.34785C99.3031 2.34212 97.5552 1.84494 95.787 1.93333H87.727V19.6913H101.421V21.8313H87.728V40.8743H95.788C96.6518 40.8788 97.5132 40.7831 98.355 40.5893C101.066 39.876 103.039 37.6887 104.275 34.0273L105.915 29.1063H107.983L107.698 42.8003H72.037V40.8743H77.746V1.93233H72.04V0.00632668H107.702L107.987 13.7003H105.916Z" fill="var(--fill-0, #8D7431)"/>
<path id="Path 294" d="M138.226 42.8003V40.8743H143.29L137.941 27.1803H123.746L118.61 40.8743H122.604C122.867 40.8728 123.13 40.8966 123.388 40.9453C124.005 41.0413 124.314 41.6597 124.315 42.8003H111.194V40.8743H115.759L131.379 0.00632668H136.657L153.489 40.8743H155.629C155.892 40.8728 156.155 40.8966 156.413 40.9453C157.03 41.0413 157.339 41.6597 157.34 42.8003H138.226ZM130.737 8.63633L124.603 25.0363H137.084L130.737 8.63633Z" fill="var(--fill-0, #8D7431)"/>
<path id="Path 295" d="M158.766 42.8003V40.8743H164.472V1.93133H158.766V0.00632668H180.52V1.93133H174.457V40.8743H181.804C183.1 40.8998 184.387 40.657 185.584 40.1613C187.438 39.2587 188.864 37.214 189.863 34.0273L191.931 27.3273H193.999L193.714 42.8043L158.766 42.8003Z" fill="var(--fill-0, #8D7431)"/>
<path id="Path 296" d="M14.13 52.0073H12.792V61.1373H13.679C13.7944 61.1497 13.902 61.2012 13.9841 61.2832C14.0662 61.3653 14.1176 61.4729 14.13 61.5883H9.197V61.1373H10.536V53.1943L6.936 61.7573H6.636L3.075 54.8343V61.1343H3.961C4.07656 61.1465 4.18446 61.1979 4.26671 61.2799C4.34897 61.362 4.4006 61.4698 4.413 61.5853H1.036V61.1343H2.375V52.0073H1.036V51.5553H4.03L7.541 58.7463L10.536 51.5573H14.136L14.13 52.0073Z" fill="var(--fill-0, #8D7431)"/>
<path id="Path 297" d="M22.576 54.7683L22.208 53.6143C22.175 53.5143 22.135 53.4143 22.091 53.3143C21.9626 52.9203 21.708 52.5794 21.3666 52.3445C21.0252 52.1095 20.6159 51.9935 20.202 52.0143H18.31V56.1783H21.52V56.6783H18.31V61.1433H20.199C20.4009 61.1442 20.6023 61.1217 20.799 61.0763C21.1433 60.9614 21.4521 60.7594 21.6953 60.4899C21.9385 60.2204 22.1079 59.8926 22.187 59.5383L22.572 58.3843H23.057L22.99 61.5943H14.631V61.1433H15.969V52.0073H14.631V51.5553H22.992L23.059 54.7663L22.576 54.7683Z" fill="var(--fill-0, #8D7431)"/>
<path id="Path 298" d="M29.079 51.5573C30.2234 51.5317 31.3505 51.8396 32.323 52.4433C33.0113 52.8888 33.5689 53.509 33.9389 54.2406C34.3089 54.9722 34.4781 55.789 34.429 56.6073C34.4519 57.2741 34.3325 57.9381 34.0789 58.5552C33.8253 59.1723 33.4432 59.7283 32.958 60.1863C31.9142 61.1363 30.5394 61.639 29.129 61.5863H24.146V61.1353H25.485V52.0073H24.146V51.5553L29.079 51.5573ZM27.825 52.0093V61.1393H29.095C29.556 61.155 30.0126 61.045 30.416 60.8213C31.3413 60.2753 31.8043 58.842 31.805 56.5213C31.8326 55.5789 31.7196 54.6375 31.47 53.7283C31.3393 53.2148 31.0345 52.7624 30.6077 52.4484C30.1808 52.1344 29.6582 51.9782 29.129 52.0063L27.825 52.0093Z" fill="var(--fill-0, #8D7431)"/>
<path id="Path 299" d="M35.35 61.5903V61.1393H36.688V52.0073H35.35V51.5553H40.367V52.0073H39.029V61.1373H39.915C40.0306 61.1495 40.1385 61.2009 40.2207 61.2829C40.303 61.365 40.3546 61.4728 40.367 61.5883L35.35 61.5903Z" fill="var(--fill-0, #8D7431)"/>
<path id="Path 300" d="M46.503 61.7583C45.7782 61.7883 45.0551 61.6653 44.381 61.3974C43.7068 61.1295 43.0966 60.7226 42.59 60.2033C41.6653 59.225 41.1662 57.92 41.202 56.5743C41.1851 55.4114 41.556 54.276 42.256 53.3473C42.7602 52.6967 43.4151 52.1785 44.1642 51.8376C44.9134 51.4966 45.7343 51.3431 46.556 51.3903C47.6754 51.3779 48.7799 51.6483 49.767 52.1763C49.7542 52.0312 49.7599 51.885 49.784 51.7413C49.8393 51.5633 50.012 51.4743 50.302 51.4743L50.352 54.7683H49.767C49.6256 54.2156 49.4177 53.6821 49.148 53.1793C48.9201 52.7685 48.5815 52.43 48.1706 52.2023C47.7597 51.9746 47.2931 51.8668 46.824 51.8913C44.8393 51.9027 43.8417 53.436 43.831 56.4913C43.8176 57.2821 43.8846 58.0721 44.031 58.8493C44.3877 60.4547 45.2737 61.2573 46.689 61.2573C47.0161 61.261 47.3422 61.2217 47.659 61.1403C48.707 60.8503 49.4373 59.9307 49.85 58.3813H50.402V61.6753C50.301 61.6778 50.2001 61.6667 50.102 61.6423C49.902 61.5977 49.8073 61.3643 49.818 60.9423C48.7968 61.479 47.6606 61.76 46.507 61.7613" fill="var(--fill-0, #8D7431)"/>
<path id="Path 301" d="M57.071 61.5903V61.1383H58.258L57.004 57.9283H53.677L52.477 61.1383H53.413C53.4747 61.1381 53.5363 61.1438 53.597 61.1553C53.7417 61.178 53.814 61.323 53.814 61.5903H50.737V61.1383H51.807L55.469 51.5573H56.707L60.653 61.1383H61.153C61.2147 61.1381 61.2763 61.1438 61.337 61.1553C61.4817 61.178 61.554 61.323 61.554 61.5903H57.071ZM55.315 53.5803L53.877 57.4263H56.803L55.315 53.5803Z" fill="var(--fill-0, #8D7431)"/>
<path id="Path 302" d="M61.887 61.5903V61.1393H63.225V52.0073H61.887V51.5553H66.987V52.0073H65.566V61.1373H67.289C67.7512 61.1699 68.2078 61.0201 68.5608 60.7201C68.9139 60.4201 69.1355 59.9937 69.178 59.5323L69.663 57.9603H70.148L70.081 61.5893L61.887 61.5903Z" fill="var(--fill-0, #8D7431)"/>
<path id="Path 303" d="M79.745 61.5903V61.1383H80.932L79.678 57.9283H76.351L75.151 61.1383H76.088C76.1494 61.1381 76.2107 61.1438 76.271 61.1553C76.4163 61.178 76.489 61.323 76.489 61.5903H73.412V61.1383H74.482L78.144 51.5573H79.376L83.322 61.1383H83.822C83.8837 61.1381 83.9453 61.1438 84.006 61.1553C84.1507 61.178 84.223 61.323 84.223 61.5903H79.745ZM77.99 53.5803L76.552 57.4263H79.476L77.99 53.5803Z" fill="var(--fill-0, #8D7431)"/>
<path id="Path 304" d="M91.869 51.5573H95.247V52.0093H93.909V61.5093L92.956 61.6763L86.518 54.1683V61.1413H87.488C87.6036 61.1535 87.7115 61.2049 87.7937 61.2869C87.876 61.369 87.9276 61.4768 87.94 61.5923H84.479V61.1413H85.817V52.0073H84.479V51.5553H87.305L93.205 58.4783V52.0073H91.867L91.869 51.5573Z" fill="var(--fill-0, #8D7431)"/>
<path id="Path 305" d="M100.597 51.5573C101.741 51.5317 102.869 51.8396 103.841 52.4433C104.53 52.8886 105.087 53.5088 105.458 54.2404C105.828 54.972 105.997 55.7888 105.948 56.6073C105.971 57.2741 105.852 57.9381 105.598 58.5552C105.344 59.1723 104.962 59.7283 104.477 60.1863C103.433 61.1362 102.058 61.6389 100.648 61.5863H95.663V61.1353H97.001V52.0073H95.663V51.5553L100.597 51.5573ZM99.343 52.0093V61.1393H100.614C101.075 61.1549 101.532 61.0449 101.935 60.8213C102.86 60.2753 103.323 58.842 103.323 56.5213C103.351 55.5789 103.238 54.6375 102.988 53.7283C102.857 53.2148 102.553 52.7624 102.126 52.4484C101.699 52.1344 101.176 51.9782 100.647 52.0063L99.343 52.0093Z" fill="var(--fill-0, #8D7431)"/>
<path id="Path 306" d="M120.362 61.5903C120.2 61.5967 120.039 61.5623 119.894 61.4903C119.557 61.166 119.315 60.7555 119.194 60.3033L117.388 55.6033L115.181 61.5893H114.846C114.684 61.5957 114.523 61.5613 114.378 61.4893C114.041 61.165 113.799 60.7545 113.678 60.3023L110.467 52.0083H109.631V51.5563H114.155V52.0083H112.817L115.442 59.3153L117.081 54.8503L115.81 51.5563H119.69V52.0083L118.352 51.9913L120.944 59.1643L123.302 52.0073H121.964V51.5553H124.723V52.0073H123.887L120.693 61.5883L120.362 61.5903Z" fill="var(--fill-0, #8D7431)"/>
<path id="Path 307" d="M133.004 54.7683L132.636 53.6143C132.603 53.5143 132.563 53.4143 132.519 53.3143C132.391 52.9202 132.136 52.5793 131.795 52.3443C131.453 52.1093 131.044 51.9933 130.63 52.0143H128.741V56.1783H131.951V56.6783H128.741V61.1433H130.63C130.832 61.1441 131.033 61.1217 131.23 61.0763C131.574 60.9613 131.883 60.7593 132.126 60.4898C132.369 60.2203 132.539 59.8926 132.618 59.5383L133.003 58.3843H133.488L133.421 61.5943H125.061V61.1433H126.399V52.0073H125.061V51.5553H133.421L133.488 54.7663L133.004 54.7683Z" fill="var(--fill-0, #8D7431)"/>
<path id="Path 308" d="M134.575 61.5903V61.1393H135.913V52.0073H134.575V51.5553H139.675V52.0073H138.254V61.1373H139.977C140.439 61.1699 140.896 61.0201 141.249 60.7201C141.602 60.4201 141.823 59.9937 141.866 59.5323L142.351 57.9603H142.836L142.769 61.5893L134.575 61.5903Z" fill="var(--fill-0, #8D7431)"/>
<path id="Path 309" d="M143.17 61.5903V61.1393H144.508V52.0073H143.17V51.5553H148.27V52.0073H146.849V61.1373H148.572C149.034 61.1699 149.491 61.0201 149.844 60.7201C150.197 60.4201 150.418 59.9937 150.461 59.5323L150.946 57.9603H151.431L151.364 61.5893L143.17 61.5903Z" fill="var(--fill-0, #8D7431)"/>
<path id="Path 310" d="M159.073 51.5573H162.451V52.0093H161.113V61.5093L160.16 61.6763L153.722 54.1683V61.1413H154.692C154.808 61.1535 154.915 61.2049 154.998 61.2869C155.08 61.369 155.132 61.4768 155.144 61.5923H151.683V61.1413H153.021V52.0073H151.683V51.5553H154.509L160.409 58.4783V52.0073H159.071L159.073 51.5573Z" fill="var(--fill-0, #8D7431)"/>
<path id="Path 311" d="M170.811 54.7683L170.443 53.6143C170.41 53.5143 170.37 53.4143 170.326 53.3143C170.198 52.9202 169.943 52.5793 169.602 52.3443C169.26 52.1093 168.851 51.9933 168.437 52.0143H166.547V56.1783H169.758V56.6783H166.547V61.1433H168.436C168.638 61.1441 168.839 61.1217 169.036 61.0763C169.381 60.9618 169.69 60.76 169.933 60.4904C170.176 60.2208 170.345 59.8928 170.424 59.5383L170.809 58.3843H171.294L171.227 61.5943H162.867V61.1433H164.205V52.0073H162.867V51.5553H171.227L171.294 54.7663L170.811 54.7683Z" fill="var(--fill-0, #8D7431)"/>
<path id="Path 312" d="M179.907 60.6713C179.005 61.4475 177.834 61.8379 176.646 61.7583C175.547 61.7908 174.464 61.4937 173.536 60.9053C173.539 61.0567 173.528 61.208 173.503 61.3573C173.447 61.536 173.269 61.625 172.968 61.6243V58.0793H173.62C173.652 58.6205 173.777 59.1521 173.988 59.6513C174.178 60.1503 174.522 60.5761 174.97 60.8675C175.417 61.159 175.946 61.301 176.479 61.2733C176.769 61.2772 177.057 61.2322 177.332 61.1403C177.664 61.0314 177.951 60.8139 178.145 60.5229C178.339 60.2318 178.429 59.8841 178.402 59.5353C178.401 59.2985 178.35 59.0645 178.251 58.8493C177.808 58.2013 177.187 57.6958 176.462 57.3943C175.395 56.8483 174.793 56.5307 174.656 56.4413C174.203 56.2234 173.817 55.8883 173.538 55.4709C173.259 55.0534 173.096 54.5688 173.067 54.0673C173.063 53.7673 173.119 53.4696 173.231 53.1912C173.343 52.9128 173.509 52.6593 173.719 52.4453C174.127 52.0709 174.608 51.7841 175.132 51.6028C175.655 51.4215 176.211 51.3496 176.763 51.3913C177.775 51.3883 178.774 51.611 179.689 52.0433C179.688 51.9537 179.694 51.8641 179.706 51.7753C179.761 51.564 179.945 51.4583 180.258 51.4583V54.4843H179.606C179.61 53.9354 179.459 53.3966 179.171 52.9293C178.95 52.5909 178.643 52.3168 178.282 52.1347C177.921 51.9527 177.518 51.8691 177.114 51.8923C176.887 51.891 176.662 51.9247 176.445 51.9923C176.16 52.0646 175.909 52.2338 175.735 52.4711C175.561 52.7083 175.475 52.9987 175.492 53.2923C175.492 53.5471 175.549 53.7987 175.659 54.0283C176.086 54.6774 176.698 55.1841 177.415 55.4833L179.17 56.4193C179.609 56.6473 179.981 56.9865 180.248 57.4031C180.515 57.8197 180.667 58.2991 180.691 58.7933C180.697 59.143 180.63 59.49 180.495 59.8125C180.36 60.1349 180.159 60.4257 179.905 60.6663" fill="var(--fill-0, #8D7431)"/>
<path id="Path 313" d="M189.238 60.6713C188.336 61.4475 187.165 61.8379 185.977 61.7583C184.878 61.7908 183.795 61.4937 182.867 60.9053C182.87 61.0567 182.859 61.208 182.834 61.3573C182.778 61.536 182.6 61.625 182.299 61.6243V58.0793H182.951C182.983 58.6205 183.108 59.1521 183.319 59.6513C183.509 60.1503 183.853 60.5761 184.301 60.8675C184.748 61.159 185.277 61.301 185.81 61.2733C186.1 61.2772 186.388 61.2322 186.663 61.1403C186.995 61.0314 187.282 60.8139 187.476 60.5229C187.67 60.2318 187.76 59.8841 187.733 59.5353C187.732 59.2985 187.681 59.0645 187.582 58.8493C187.139 58.2012 186.518 57.6957 185.793 57.3943C184.726 56.8483 184.124 56.5307 183.987 56.4413C183.534 56.2234 183.148 55.8883 182.869 55.4709C182.59 55.0534 182.427 54.5688 182.398 54.0673C182.394 53.7673 182.45 53.4696 182.562 53.1912C182.674 52.9128 182.84 52.6593 183.05 52.4453C183.458 52.0709 183.939 51.7842 184.462 51.603C184.986 51.4217 185.541 51.3496 186.093 51.3913C187.105 51.3883 188.104 51.611 189.019 52.0433C189.018 51.9537 189.024 51.8641 189.036 51.7753C189.091 51.564 189.275 51.4583 189.588 51.4583V54.4843H188.936C188.94 53.9354 188.789 53.3965 188.501 52.9293C188.28 52.5909 187.973 52.3168 187.612 52.1347C187.251 51.9527 186.848 51.8691 186.444 51.8923C186.217 51.891 185.991 51.9247 185.775 51.9923C185.49 52.0646 185.239 52.2338 185.065 52.4711C184.891 52.7083 184.805 52.9987 184.822 53.2923C184.822 53.5471 184.879 53.7987 184.989 54.0283C185.416 54.6774 186.028 55.1841 186.745 55.4833L188.5 56.4193C188.939 56.6471 189.311 56.9863 189.578 57.4029C189.845 57.8195 189.998 58.299 190.022 58.7933C190.028 59.143 189.961 59.49 189.826 59.8125C189.691 60.1349 189.49 60.4257 189.236 60.6663" fill="var(--fill-0, #8D7431)"/>
</g>
</svg>
