<svg xmlns="http://www.w3.org/2000/svg" width="43" height="50" viewBox="0 0 43 50"><path fill="#8d7431" d="M42.566 34.238a13.23 13.23 0 0 0-2.812-6.875 29 29 0 0 0-1.94-2.443.045.045 0 0 1 0-.059 29 29 0 0 0 2.765-3.8c1.69-2.757 3.117-6.892.6-9.669-1.5-1.656-3.995-2.13-6.134-2.124a25.3 25.3 0 0 0-4.732.457.08.08 0 0 1-.089-.053 27 27 0 0 0-1.774-4.448C27.01 2.394 24.734-.015 21.317 0c-3.544.016-5.808 2.47-7.3 5.411a27.5 27.5 0 0 0-1.738 4.246.084.084 0 0 1-.1.056 23 23 0 0 0-4.546-.44c-2.781 0-5.962.741-7.2 3.541a5.5 5.5 0 0 0-.4 2.462 9.3 9.3 0 0 0 .612 2.957 23.2 23.2 0 0 0 4.127 6.633.07.07 0 0 1 0 .088 25.5 25.5 0 0 0-3.51 4.936A8.86 8.86 0 0 0 .1 35.53a4.89 4.89 0 0 0 2.361 3.46c.835.507 1.76.85 2.723 1.01 2.3.353 4.645.277 6.917-.225a.064.064 0 0 1 .083.05 23 23 0 0 0 2.945 6.594 8.9 8.9 0 0 0 2.374 2.41 6.65 6.65 0 0 0 5.751.865 8.03 8.03 0 0 0 3.834-2.89 22.3 22.3 0 0 0 3.258-6.92.093.093 0 0 1 .106-.065c1.702.303 3.43.431 5.159.382 3.569-.1 7.132-1.853 6.956-5.959m-31.152 3.08c-1.581.27-3.188.362-4.789.273a8.3 8.3 0 0 1-1.414-.244A3.13 3.13 0 0 1 2.7 35.014a6.95 6.95 0 0 1 1.342-4.706 31 31 0 0 1 2.481-3.4.067.067 0 0 1 .1 0 27.3 27.3 0 0 0 3.53 3.2.3.3 0 0 1 .123.216 61 61 0 0 0 1.191 6.913.07.07 0 0 1-.055.082M8.347 24.911l1.663-1.645a.039.039 0 0 1 .067.028l.007 3.345a.04.04 0 0 1-.024.038.04.04 0 0 1-.043-.009l-1.671-1.7a.04.04 0 0 1 0-.056m3.126-12.582a48 48 0 0 0-1.127 7.042.34.34 0 0 1-.126.235 36 36 0 0 0-3.629 3.284.045.045 0 0 1-.067 0A27.6 27.6 0 0 1 3.8 18.835a10.8 10.8 0 0 1-1.115-2.91 3.3 3.3 0 0 1 .13-1.89c.688-1.81 2.975-2.125 4.617-2.144a20.7 20.7 0 0 1 3.986.352.07.07 0 0 1 .047.031.07.07 0 0 1 .009.056m3.306-1.938c.4-1.186.874-2.346 1.42-3.472 1.158-2.37 2.849-4.692 5.854-4.2a5.3 5.3 0 0 1 3.449 2.692c.95 1.55 1.67 3.23 2.139 4.988a.05.05 0 0 1-.035.063 25.3 25.3 0 0 0-6.3 2.624.1.1 0 0 1-.093 0A27.5 27.5 0 0 0 14.8 10.44l-.013-.007a.04.04 0 0 1-.012-.04M21 32.976q.4.432.69.716c.2.2.606.2 1.029.256q.139.017.021.093l-.655.423a.22.22 0 0 1-.214.017 30 30 0 0 1-2.886-1.54 4.9 4.9 0 0 1-1.664-1.4.045.045 0 0 1 .038-.07l7.761-.025a.06.06 0 0 1 .048.026.06.06 0 0 1 .006.054 2.9 2.9 0 0 1-.793 1.1.9.9 0 0 1-.582.255q-1.939 0-2.771.03a.039.039 0 0 0-.028.064m-3.969-2.71a.22.22 0 0 1-.212-.28l.25-.9a.22.22 0 0 1 .213-.16h7.679a.22.22 0 0 1 .212.16l.253.9a.222.222 0 0 1-.212.28zm6.815-2.507a181 181 0 0 0-5.528.01q-.198.002-.039-.117a20 20 0 0 1 2.669-1.537.11.11 0 0 1 .112 0l2.813 1.538q.198.11-.028.1m-2.583-3.749a.2.2 0 0 1-.162 0 36 36 0 0 1-2.772-1.458 4.5 4.5 0 0 1-.7-.559.04.04 0 0 1-.01-.043.04.04 0 0 1 .036-.026l.318-.007q2.518-.034 6.758-.032.223 0 .052.143-.693.557-1.49.953-1.18.615-2.028 1.027m-4.27-3.274a.2.2 0 0 1-.2-.2v-1.024a.2.2 0 0 1 .2-.2l4.95-.009 3.43-.005a.2.2 0 0 1 .2.2v1.024a.2.2 0 0 1-.2.2zm7.513-2.627-6.807.018q-.094 0-.022-.059a18 18 0 0 1 3.494-2.266.08.08 0 0 1 .078 0 25 25 0 0 1 3.311 2.143q.21.162-.053.163m3.22 21.108a23 23 0 0 1-2.268 5.317c-1.166 1.988-3.063 3.411-5.448 2.637a6.64 6.64 0 0 1-3.448-3.474 24.6 24.6 0 0 1-1.836-4.53.05.05 0 0 1 .004-.041.05.05 0 0 1 .032-.025 28.4 28.4 0 0 0 4.749-1.873.05.05 0 0 0 .024-.042.05.05 0 0 0-.024-.042L17.175 35.7a.22.22 0 0 0-.2-.015q-1.446.594-2.954 1a.05.05 0 0 1-.035-.005.05.05 0 0 1-.021-.029 59.5 59.5 0 0 1-1.229-8.393 47 47 0 0 1 .207-8.99c.244-2.132.605-4.25 1.082-6.342a.05.05 0 0 1 .024-.033.05.05 0 0 1 .041-.006 26 26 0 0 1 4.554 1.728.053.053 0 0 1 .02.074.1.1 0 0 1-.02.02 10 10 0 0 0-2.213 1.685 5.07 5.07 0 0 0-1.243 5.233 4.97 4.97 0 0 0 2.1 2.647q.6.393 1.393.838a.03.03 0 0 1 .018.03.03.03 0 0 1-.018.03q-.81.434-1.551.98a4.84 4.84 0 0 0-1.5 6.384A6.8 6.8 0 0 0 18 34.76a35 35 0 0 0 9.691 4.378.06.06 0 0 1 .041.049l-.002.022m2.027-13.52A58.7 58.7 0 0 1 28.5 36.68a.08.08 0 0 1-.067.064.1.1 0 0 1-.033-.003 27.6 27.6 0 0 1-4.233-1.39.041.041 0 0 1-.007-.072 7.44 7.44 0 0 0 2.854-2.989c.258-.6.39-1.247.388-1.9a5.52 5.52 0 0 0-2.97-4.747 18 18 0 0 0-.807-.463q-.063-.036 0-.067l.827-.433a5.43 5.43 0 0 0 2.8-3.07 5.32 5.32 0 0 0-1.983-5.866 15 15 0 0 0-1.4-1.014c-.052-.032-.049-.063 0-.09a28 28 0 0 1 4.431-1.73.08.08 0 0 1 .062.005.08.08 0 0 1 .038.05 51.4 51.4 0 0 1 1.361 12.723m1.251-13.433a23.4 23.4 0 0 1 3.76-.364 9.7 9.7 0 0 1 2.746.324c2.324.644 2.825 2.738 2.091 4.808a21.4 21.4 0 0 1-3.558 5.89.06.06 0 0 1-.04.018.06.06 0 0 1-.041-.018 43 43 0 0 0-3.771-3.477.15.15 0 0 1-.055-.1 64 64 0 0 0-1.192-6.994.06.06 0 0 1 .007-.059.06.06 0 0 1 .053-.028m3.22 12.737-1.767 1.68a.04.04 0 0 1-.06-.009.04.04 0 0 1-.006-.022l.024-3.38a.04.04 0 0 1 .067-.03l1.742 1.7.009.013a.04.04 0 0 1 0 .031l-.009.013m5.685 9.995a3.2 3.2 0 0 1-2.65 2.386 11.6 11.6 0 0 1-3.031.268 30 30 0 0 1-3.2-.3.02.02 0 0 1-.015-.01q-.005-.008-.003-.017c.535-2.26.907-4.555 1.113-6.869a.4.4 0 0 1 .135-.263 43 43 0 0 0 3.648-3.249.1.1 0 0 1 .085-.043.1.1 0 0 1 .083.048 29 29 0 0 1 2.179 2.921c.981 1.5 1.952 3.366 1.654 5.122"/></svg>